<svg version="1.2" xmlns="http://www.w3.org/2000/svg" viewBox="0 0 64 16" width="64" height="16"><style>.a{fill:#f0f}</style><path class="a" d="m5 1h5v1h2v1h1v2h1v5h-1v2h-1v1h-2v1h-5v-1h-2v-1h-1v-2h-1v-5h1v-2h1v-1h2z"/><path class="a" d="m18 5v-2h1v-1h2v-1h5v1h2v1h1v2h-2v1h-3v1h-3v1h3v1h3v1h2v2h-1v1h-2v1h-5v-1h-2v-1h-1v-2h-1v-5z"/><path class="a" d="m34 5v-2h1v-1h2v-1h5v2h-1v1h-1v1h-1v1h-1v1h-1v1h1v1h1v1h1v1h1v1h1v2h-5v-1h-2v-1h-1v-2h-1v-5z"/><path class="a" d="m50 5v-2h1v-1h2v-1h5v1h2v1h1v2h-2v1h-3v1h-3v1h3v1h3v1h2v2h-1v1h-2v1h-5v-1h-2v-1h-1v-2h-1v-5z"/></svg>