<svg version="1.2" xmlns="http://www.w3.org/2000/svg" viewBox="0 0 64 16" width="64" height="16"><style>.a{fill:#f00}</style><path class="a" d="m5 1h5v1h2v1h1v2h1v5h-1v2h-1v1h-2v1h-5v-1h-2v-1h-1v-2h-1v-5h1v-2h1v-1h2z"/><path class="a" d="m29 10v2h-1v1h-2v1h-5v-1h-2v-1h-1v-2h2v-1h3v-1h3v-1h-3v-1h-3v-1h-2v-2h1v-1h2v-1h5v1h2v1h1v2h1v5z"/><path class="a" d="m45 10v2h-1v1h-2v1h-5v-2h1v-1h1v-1h1v-1h1v-1h1v-1h-1v-1h-1v-1h-1v-1h-1v-1h-1v-2h5v1h2v1h1v2h1v5z"/><path class="a" d="m61 10v2h-1v1h-2v1h-5v-1h-2v-1h-1v-2h2v-1h3v-1h3v-1h-3v-1h-3v-1h-2v-2h1v-1h2v-1h5v1h2v1h1v2h1v5z"/></svg>